<mxfile host="app.diagrams.net" modified="2023-04-03T14:22:04.209Z" agent="Mozilla/5.0 (Windows NT 10.0; Win64; x64) AppleWebKit/537.36 (KHTML, like Gecko) Chrome/111.0.0.0 Safari/537.36 Edg/111.0.1661.62" etag="taL9nFI6EP3anEfjO8r4" version="21.1.2" type="github">
  <diagram id="bNiykGUIPG_JCuNzhqLb" name="第 1 页">
    <mxGraphModel dx="1966" dy="650" grid="1" gridSize="10" guides="1" tooltips="1" connect="1" arrows="1" fold="1" page="1" pageScale="1" pageWidth="827" pageHeight="1169" math="0" shadow="0">
      <root>
        <mxCell id="0" />
        <mxCell id="1" parent="0" />
        <mxCell id="Llxdb2gsy4WBxAJzYAwn-1" value="&lt;p&gt;&lt;font style=&quot;font-size: 12px;&quot;&gt;&lt;b style=&quot;&quot;&gt;前期调研&lt;/b&gt;&lt;/font&gt;&lt;/p&gt;" style="rounded=1;whiteSpace=wrap;html=1;fillColor=#f8cecc;strokeColor=#b85450;" parent="1" vertex="1">
          <mxGeometry x="-150" y="10" width="70" height="30" as="geometry" />
        </mxCell>
        <mxCell id="Llxdb2gsy4WBxAJzYAwn-5" value="&lt;p&gt;&lt;font style=&quot;font-size: 12px;&quot;&gt;&lt;b style=&quot;&quot;&gt;政策背景&lt;/b&gt;&lt;/font&gt;&lt;/p&gt;" style="rounded=1;whiteSpace=wrap;html=1;fillColor=#fff2cc;strokeColor=#d6b656;" parent="1" vertex="1">
          <mxGeometry x="-264" y="80" width="70" height="30" as="geometry" />
        </mxCell>
        <mxCell id="Llxdb2gsy4WBxAJzYAwn-6" value="&lt;p&gt;&lt;font style=&quot;font-size: 12px;&quot;&gt;&lt;b style=&quot;&quot;&gt;前沿技术&lt;/b&gt;&lt;/font&gt;&lt;/p&gt;" style="rounded=1;whiteSpace=wrap;html=1;fillColor=#fff2cc;strokeColor=#d6b656;" parent="1" vertex="1">
          <mxGeometry x="-150" y="80" width="70" height="30" as="geometry" />
        </mxCell>
        <mxCell id="Llxdb2gsy4WBxAJzYAwn-7" value="&lt;p&gt;&lt;font style=&quot;font-size: 12px;&quot;&gt;&lt;b style=&quot;&quot;&gt;产品市场&lt;/b&gt;&lt;/font&gt;&lt;/p&gt;" style="rounded=1;whiteSpace=wrap;html=1;fillColor=#fff2cc;strokeColor=#d6b656;" parent="1" vertex="1">
          <mxGeometry x="-34" y="80" width="70" height="30" as="geometry" />
        </mxCell>
        <mxCell id="Llxdb2gsy4WBxAJzYAwn-11" value="" style="edgeStyle=elbowEdgeStyle;elbow=vertical;strokeWidth=3;endArrow=block;endFill=1;fontStyle=1;strokeColor=#666666;exitX=0.5;exitY=1;exitDx=0;exitDy=0;entryX=0.5;entryY=0;entryDx=0;entryDy=0;endSize=2;" parent="1" source="Llxdb2gsy4WBxAJzYAwn-1" target="Llxdb2gsy4WBxAJzYAwn-5" edge="1">
          <mxGeometry x="-884" y="-100" width="100" height="100" as="geometry">
            <mxPoint x="-134" y="140" as="sourcePoint" />
            <mxPoint x="36" y="350" as="targetPoint" />
            <Array as="points">
              <mxPoint x="-224" y="60" />
            </Array>
          </mxGeometry>
        </mxCell>
        <mxCell id="Llxdb2gsy4WBxAJzYAwn-12" value="" style="edgeStyle=elbowEdgeStyle;elbow=vertical;strokeWidth=3;endArrow=block;endFill=1;fontStyle=1;strokeColor=#666666;exitX=0.5;exitY=1;exitDx=0;exitDy=0;entryX=0.5;entryY=0;entryDx=0;entryDy=0;endSize=2;" parent="1" source="Llxdb2gsy4WBxAJzYAwn-1" target="Llxdb2gsy4WBxAJzYAwn-6" edge="1">
          <mxGeometry x="-829" y="40" width="100" height="100" as="geometry">
            <mxPoint x="-60.00000000000023" y="190" as="sourcePoint" />
            <mxPoint x="-174" y="219.9999999999999" as="targetPoint" />
            <Array as="points">
              <mxPoint x="-124" y="70" />
            </Array>
          </mxGeometry>
        </mxCell>
        <mxCell id="Llxdb2gsy4WBxAJzYAwn-13" value="" style="edgeStyle=elbowEdgeStyle;elbow=vertical;strokeWidth=3;endArrow=block;endFill=1;fontStyle=1;strokeColor=#666666;entryX=0.5;entryY=0;entryDx=0;entryDy=0;endSize=2;exitX=0.5;exitY=1;exitDx=0;exitDy=0;" parent="1" source="Llxdb2gsy4WBxAJzYAwn-1" target="Llxdb2gsy4WBxAJzYAwn-7" edge="1">
          <mxGeometry x="-689" y="30" width="100" height="100" as="geometry">
            <mxPoint x="-114" y="50" as="sourcePoint" />
            <mxPoint x="-34" y="209.9999999999999" as="targetPoint" />
            <Array as="points">
              <mxPoint x="-24" y="60" />
              <mxPoint x="-29" y="190" />
            </Array>
          </mxGeometry>
        </mxCell>
        <mxCell id="Llxdb2gsy4WBxAJzYAwn-15" value="&lt;p&gt;&lt;font style=&quot;font-size: 12px;&quot;&gt;&lt;b style=&quot;&quot;&gt;复现论文&lt;/b&gt;&lt;/font&gt;&lt;/p&gt;" style="rounded=1;whiteSpace=wrap;html=1;fillColor=#dae8fc;strokeColor=#6c8ebf;" parent="1" vertex="1">
          <mxGeometry x="-200" y="150" width="70" height="30" as="geometry" />
        </mxCell>
        <mxCell id="Llxdb2gsy4WBxAJzYAwn-16" value="&lt;p&gt;&lt;b&gt;收集数据&lt;/b&gt;&lt;/p&gt;" style="rounded=1;whiteSpace=wrap;html=1;fillColor=#fff2cc;strokeColor=#d6b656;" parent="1" vertex="1">
          <mxGeometry x="-94" y="150" width="70" height="30" as="geometry" />
        </mxCell>
        <mxCell id="Llxdb2gsy4WBxAJzYAwn-17" value="&lt;p&gt;&lt;font style=&quot;font-size: 12px;&quot;&gt;&lt;b style=&quot;&quot;&gt;综合设计&lt;/b&gt;&lt;/font&gt;&lt;/p&gt;" style="rounded=1;whiteSpace=wrap;html=1;fillColor=#f8cecc;strokeColor=#b85450;" parent="1" vertex="1">
          <mxGeometry x="-150" y="220" width="70" height="30" as="geometry" />
        </mxCell>
        <mxCell id="Llxdb2gsy4WBxAJzYAwn-18" value="" style="edgeStyle=elbowEdgeStyle;elbow=vertical;strokeWidth=3;endArrow=block;endFill=1;fontStyle=1;strokeColor=#666666;entryX=0.5;entryY=0;entryDx=0;entryDy=0;endSize=2;exitX=0.5;exitY=1;exitDx=0;exitDy=0;" parent="1" source="Llxdb2gsy4WBxAJzYAwn-6" target="Llxdb2gsy4WBxAJzYAwn-16" edge="1">
          <mxGeometry x="-399" y="110" width="100" height="100" as="geometry">
            <mxPoint x="176" y="130" as="sourcePoint" />
            <mxPoint x="291" y="159.9999999999999" as="targetPoint" />
            <Array as="points">
              <mxPoint x="-94" y="130" />
              <mxPoint x="261" y="270" />
            </Array>
          </mxGeometry>
        </mxCell>
        <mxCell id="Llxdb2gsy4WBxAJzYAwn-19" value="" style="edgeStyle=elbowEdgeStyle;elbow=vertical;strokeWidth=3;endArrow=block;endFill=1;fontStyle=1;strokeColor=#666666;entryX=0.5;entryY=0;entryDx=0;entryDy=0;endSize=2;exitX=0.5;exitY=1;exitDx=0;exitDy=0;" parent="1" source="Llxdb2gsy4WBxAJzYAwn-15" target="Llxdb2gsy4WBxAJzYAwn-17" edge="1">
          <mxGeometry x="-459" y="150" width="100" height="100" as="geometry">
            <mxPoint x="116" y="170" as="sourcePoint" />
            <mxPoint x="231" y="199.9999999999999" as="targetPoint" />
            <Array as="points">
              <mxPoint x="-114" y="190" />
              <mxPoint x="201" y="310" />
            </Array>
          </mxGeometry>
        </mxCell>
        <mxCell id="Llxdb2gsy4WBxAJzYAwn-20" value="" style="edgeStyle=elbowEdgeStyle;elbow=vertical;strokeWidth=3;endArrow=block;endFill=1;fontStyle=1;strokeColor=#666666;endSize=2;exitX=0.5;exitY=1;exitDx=0;exitDy=0;entryX=0.5;entryY=0;entryDx=0;entryDy=0;" parent="1" source="Llxdb2gsy4WBxAJzYAwn-16" target="Llxdb2gsy4WBxAJzYAwn-17" edge="1">
          <mxGeometry x="-459" y="200" width="100" height="100" as="geometry">
            <mxPoint x="116" y="220" as="sourcePoint" />
            <mxPoint x="-114" y="210" as="targetPoint" />
            <Array as="points">
              <mxPoint x="-74" y="190" />
              <mxPoint x="206" y="230" />
              <mxPoint x="201" y="360" />
            </Array>
          </mxGeometry>
        </mxCell>
        <mxCell id="Llxdb2gsy4WBxAJzYAwn-21" value="" style="edgeStyle=elbowEdgeStyle;elbow=vertical;strokeWidth=3;endArrow=block;endFill=1;fontStyle=1;strokeColor=#666666;entryX=0.5;entryY=0;entryDx=0;entryDy=0;endSize=2;exitX=0.5;exitY=1;exitDx=0;exitDy=0;" parent="1" source="Llxdb2gsy4WBxAJzYAwn-6" target="Llxdb2gsy4WBxAJzYAwn-15" edge="1">
          <mxGeometry x="-419" y="50" width="100" height="100" as="geometry">
            <mxPoint x="156" y="70" as="sourcePoint" />
            <mxPoint x="271" y="99.99999999999989" as="targetPoint" />
            <Array as="points">
              <mxPoint x="-114" y="130" />
              <mxPoint x="241" y="210" />
            </Array>
          </mxGeometry>
        </mxCell>
        <mxCell id="Llxdb2gsy4WBxAJzYAwn-23" value="" style="edgeStyle=elbowEdgeStyle;elbow=vertical;strokeWidth=3;endArrow=block;endFill=1;fontStyle=1;strokeColor=#666666;entryX=0.5;entryY=0;entryDx=0;entryDy=0;endSize=2;exitX=0.5;exitY=1;exitDx=0;exitDy=0;" parent="1" source="Llxdb2gsy4WBxAJzYAwn-74" target="Llxdb2gsy4WBxAJzYAwn-82" edge="1">
          <mxGeometry x="-377" y="435" width="100" height="100" as="geometry">
            <mxPoint x="168" y="505" as="sourcePoint" />
            <mxPoint x="313" y="484.9999999999999" as="targetPoint" />
            <Array as="points">
              <mxPoint x="46" y="620" />
              <mxPoint x="36" y="610" />
              <mxPoint x="283" y="595" />
            </Array>
          </mxGeometry>
        </mxCell>
        <mxCell id="Llxdb2gsy4WBxAJzYAwn-24" value="" style="edgeStyle=elbowEdgeStyle;elbow=vertical;strokeWidth=3;endArrow=block;endFill=1;fontStyle=1;strokeColor=#666666;entryX=0.5;entryY=0;entryDx=0;entryDy=0;endSize=2;exitX=0.5;exitY=1;exitDx=0;exitDy=0;" parent="1" source="Llxdb2gsy4WBxAJzYAwn-66" target="Llxdb2gsy4WBxAJzYAwn-70" edge="1">
          <mxGeometry x="-367" y="445" width="100" height="100" as="geometry">
            <mxPoint x="178" y="515" as="sourcePoint" />
            <mxPoint x="323" y="494.9999999999999" as="targetPoint" />
            <Array as="points">
              <mxPoint x="-104" y="550" />
              <mxPoint x="293" y="605" />
            </Array>
          </mxGeometry>
        </mxCell>
        <mxCell id="Llxdb2gsy4WBxAJzYAwn-25" value="" style="edgeStyle=elbowEdgeStyle;elbow=vertical;strokeWidth=3;endArrow=block;endFill=1;fontStyle=1;strokeColor=#666666;entryX=0.5;entryY=0;entryDx=0;entryDy=0;endSize=2;exitX=0.5;exitY=1;exitDx=0;exitDy=0;" parent="1" source="Llxdb2gsy4WBxAJzYAwn-66" target="Llxdb2gsy4WBxAJzYAwn-71" edge="1">
          <mxGeometry x="-357" y="455" width="100" height="100" as="geometry">
            <mxPoint x="188" y="525" as="sourcePoint" />
            <mxPoint x="333" y="504.9999999999999" as="targetPoint" />
            <Array as="points">
              <mxPoint x="-174" y="550" />
              <mxPoint x="303" y="615" />
            </Array>
          </mxGeometry>
        </mxCell>
        <mxCell id="Llxdb2gsy4WBxAJzYAwn-26" value="" style="edgeStyle=elbowEdgeStyle;elbow=vertical;strokeWidth=3;endArrow=block;endFill=1;fontStyle=1;strokeColor=#666666;entryX=0;entryY=0.5;entryDx=0;entryDy=0;endSize=2;exitX=0.5;exitY=1;exitDx=0;exitDy=0;" parent="1" source="Llxdb2gsy4WBxAJzYAwn-5" target="Llxdb2gsy4WBxAJzYAwn-17" edge="1">
          <mxGeometry x="-379" y="30" width="100" height="100" as="geometry">
            <mxPoint x="166" y="100" as="sourcePoint" />
            <mxPoint x="311" y="79.99999999999989" as="targetPoint" />
            <Array as="points">
              <mxPoint x="-224" y="235" />
              <mxPoint x="281" y="190" />
            </Array>
          </mxGeometry>
        </mxCell>
        <mxCell id="Llxdb2gsy4WBxAJzYAwn-27" value="" style="edgeStyle=elbowEdgeStyle;elbow=vertical;strokeWidth=3;endArrow=block;endFill=1;fontStyle=1;strokeColor=#666666;entryX=1;entryY=0.5;entryDx=0;entryDy=0;endSize=2;exitX=0.5;exitY=1;exitDx=0;exitDy=0;" parent="1" source="Llxdb2gsy4WBxAJzYAwn-7" target="Llxdb2gsy4WBxAJzYAwn-17" edge="1">
          <mxGeometry x="-369" y="40" width="100" height="100" as="geometry">
            <mxPoint x="176" y="110" as="sourcePoint" />
            <mxPoint x="321" y="89.99999999999989" as="targetPoint" />
            <Array as="points">
              <mxPoint x="-4" y="235" />
              <mxPoint x="291" y="200" />
            </Array>
          </mxGeometry>
        </mxCell>
        <mxCell id="Llxdb2gsy4WBxAJzYAwn-29" value="&lt;p&gt;&lt;font style=&quot;font-size: 12px;&quot;&gt;&lt;b style=&quot;&quot;&gt;产品UI设计&lt;/b&gt;&lt;/font&gt;&lt;/p&gt;" style="rounded=1;whiteSpace=wrap;html=1;fillColor=#dae8fc;strokeColor=#6c8ebf;" parent="1" vertex="1">
          <mxGeometry x="-294" y="290" width="100" height="30" as="geometry" />
        </mxCell>
        <mxCell id="Llxdb2gsy4WBxAJzYAwn-31" value="&lt;p&gt;&lt;font style=&quot;font-size: 12px;&quot;&gt;&lt;b style=&quot;&quot;&gt;对话模型设计&lt;/b&gt;&lt;/font&gt;&lt;/p&gt;" style="rounded=1;whiteSpace=wrap;html=1;fillColor=#dae8fc;strokeColor=#6c8ebf;" parent="1" vertex="1">
          <mxGeometry x="-165" y="290" width="100" height="30" as="geometry" />
        </mxCell>
        <mxCell id="Llxdb2gsy4WBxAJzYAwn-32" value="&lt;p&gt;&lt;font style=&quot;font-size: 12px;&quot;&gt;&lt;b style=&quot;&quot;&gt;江姐数据集构建&lt;/b&gt;&lt;/font&gt;&lt;/p&gt;" style="rounded=1;whiteSpace=wrap;html=1;fillColor=#dae8fc;strokeColor=#6c8ebf;" parent="1" vertex="1">
          <mxGeometry x="-34" y="290" width="100" height="30" as="geometry" />
        </mxCell>
        <mxCell id="Llxdb2gsy4WBxAJzYAwn-34" value="&lt;p&gt;&lt;font style=&quot;font-size: 12px;&quot;&gt;&lt;b style=&quot;&quot;&gt;程序设计编写&lt;/b&gt;&lt;/font&gt;&lt;/p&gt;" style="rounded=1;whiteSpace=wrap;html=1;fillColor=#dae8fc;strokeColor=#6c8ebf;" parent="1" vertex="1">
          <mxGeometry x="-250" y="360" width="100" height="30" as="geometry" />
        </mxCell>
        <mxCell id="Llxdb2gsy4WBxAJzYAwn-37" value="&lt;p&gt;&lt;font style=&quot;font-size: 12px;&quot;&gt;&lt;b style=&quot;&quot;&gt;微信小程序开发&lt;/b&gt;&lt;/font&gt;&lt;/p&gt;" style="rounded=1;whiteSpace=wrap;html=1;fillColor=#dae8fc;strokeColor=#6c8ebf;" parent="1" vertex="1">
          <mxGeometry x="-250" y="430" width="100" height="30" as="geometry" />
        </mxCell>
        <mxCell id="Llxdb2gsy4WBxAJzYAwn-60" style="edgeStyle=orthogonalEdgeStyle;rounded=0;orthogonalLoop=1;jettySize=auto;html=1;exitX=1;exitY=0.5;exitDx=0;exitDy=0;entryX=0;entryY=0.5;entryDx=0;entryDy=0;strokeColor=#1A1A1A;strokeWidth=1;fontFamily=Helvetica;fontSize=11;endSize=0;" parent="1" source="Llxdb2gsy4WBxAJzYAwn-38" target="Llxdb2gsy4WBxAJzYAwn-41" edge="1">
          <mxGeometry relative="1" as="geometry" />
        </mxCell>
        <mxCell id="Llxdb2gsy4WBxAJzYAwn-38" value="&lt;p&gt;&lt;font style=&quot;font-size: 12px;&quot;&gt;&lt;b style=&quot;&quot;&gt;模型测试&lt;/b&gt;&lt;/font&gt;&lt;/p&gt;" style="rounded=1;whiteSpace=wrap;html=1;fillColor=#dae8fc;strokeColor=#6c8ebf;" parent="1" vertex="1">
          <mxGeometry x="-80" y="430" width="100" height="30" as="geometry" />
        </mxCell>
        <mxCell id="Llxdb2gsy4WBxAJzYAwn-39" value="&lt;p&gt;&lt;font style=&quot;font-size: 12px;&quot;&gt;&lt;b style=&quot;&quot;&gt;模型构建和训练&lt;/b&gt;&lt;/font&gt;&lt;/p&gt;" style="rounded=1;whiteSpace=wrap;html=1;fillColor=#dae8fc;strokeColor=#6c8ebf;" parent="1" vertex="1">
          <mxGeometry x="-80" y="360" width="100" height="30" as="geometry" />
        </mxCell>
        <mxCell id="Llxdb2gsy4WBxAJzYAwn-40" value="&lt;pre&gt;&lt;b style=&quot;&quot;&gt;&lt;font style=&quot;font-size: 11px;&quot;&gt;鲁棒性&lt;/font&gt;&lt;/b&gt;&lt;/pre&gt;" style="rounded=0;whiteSpace=wrap;html=1;fontFamily=Helvetica;fontSize=12;fillColor=#f5f5f5;strokeColor=#666666;gradientColor=#b3b3b3;" parent="1" vertex="1">
          <mxGeometry x="56" y="400" width="60" height="20" as="geometry" />
        </mxCell>
        <mxCell id="Llxdb2gsy4WBxAJzYAwn-41" value="&lt;pre&gt;&lt;b style=&quot;&quot;&gt;&lt;font style=&quot;font-size: 11px;&quot;&gt;泛化性&lt;/font&gt;&lt;/b&gt;&lt;/pre&gt;" style="rounded=0;whiteSpace=wrap;html=1;fontFamily=Helvetica;fontSize=12;fillColor=#f5f5f5;strokeColor=#666666;gradientColor=#b3b3b3;" parent="1" vertex="1">
          <mxGeometry x="56" y="435" width="60" height="20" as="geometry" />
        </mxCell>
        <mxCell id="Llxdb2gsy4WBxAJzYAwn-42" value="&lt;pre&gt;&lt;b style=&quot;&quot;&gt;&lt;font style=&quot;font-size: 11px;&quot;&gt;对话性&lt;/font&gt;&lt;/b&gt;&lt;/pre&gt;" style="rounded=0;whiteSpace=wrap;html=1;fontFamily=Helvetica;fontSize=12;fillColor=#f5f5f5;strokeColor=#666666;gradientColor=#b3b3b3;" parent="1" vertex="1">
          <mxGeometry x="56" y="470" width="60" height="20" as="geometry" />
        </mxCell>
        <mxCell id="Llxdb2gsy4WBxAJzYAwn-44" value="" style="edgeStyle=elbowEdgeStyle;elbow=vertical;strokeWidth=3;endArrow=block;endFill=1;fontStyle=1;strokeColor=#666666;entryX=0.5;entryY=0;entryDx=0;entryDy=0;endSize=2;exitX=0.5;exitY=1;exitDx=0;exitDy=0;" parent="1" source="Llxdb2gsy4WBxAJzYAwn-32" target="Llxdb2gsy4WBxAJzYAwn-39" edge="1">
          <mxGeometry x="-379" y="30" width="100" height="100" as="geometry">
            <mxPoint x="166" y="99.99999999999989" as="sourcePoint" />
            <mxPoint x="311" y="79.99999999999989" as="targetPoint" />
            <Array as="points">
              <mxPoint x="-24" y="340" />
              <mxPoint x="281" y="190" />
            </Array>
          </mxGeometry>
        </mxCell>
        <mxCell id="Llxdb2gsy4WBxAJzYAwn-45" value="" style="edgeStyle=elbowEdgeStyle;elbow=vertical;strokeWidth=3;endArrow=block;endFill=1;fontStyle=1;strokeColor=#666666;entryX=0.5;entryY=0;entryDx=0;entryDy=0;endSize=2;exitX=0.5;exitY=1;exitDx=0;exitDy=0;" parent="1" source="Llxdb2gsy4WBxAJzYAwn-17" target="Llxdb2gsy4WBxAJzYAwn-32" edge="1">
          <mxGeometry x="-369" y="40" width="100" height="100" as="geometry">
            <mxPoint x="176" y="109.99999999999989" as="sourcePoint" />
            <mxPoint x="321" y="89.99999999999989" as="targetPoint" />
            <Array as="points">
              <mxPoint x="-104" y="270" />
              <mxPoint x="-94" y="260" />
              <mxPoint x="291" y="200" />
            </Array>
          </mxGeometry>
        </mxCell>
        <mxCell id="Llxdb2gsy4WBxAJzYAwn-46" value="" style="edgeStyle=elbowEdgeStyle;elbow=vertical;strokeWidth=3;endArrow=block;endFill=1;fontStyle=1;strokeColor=#666666;entryX=0.5;entryY=0;entryDx=0;entryDy=0;endSize=2;exitX=0.5;exitY=1;exitDx=0;exitDy=0;" parent="1" source="Llxdb2gsy4WBxAJzYAwn-17" target="Llxdb2gsy4WBxAJzYAwn-31" edge="1">
          <mxGeometry x="-359" y="50" width="100" height="100" as="geometry">
            <mxPoint x="186" y="119.99999999999989" as="sourcePoint" />
            <mxPoint x="331" y="99.99999999999989" as="targetPoint" />
            <Array as="points">
              <mxPoint x="-124" y="260" />
              <mxPoint x="301" y="210" />
            </Array>
          </mxGeometry>
        </mxCell>
        <mxCell id="Llxdb2gsy4WBxAJzYAwn-47" value="" style="edgeStyle=elbowEdgeStyle;elbow=vertical;strokeWidth=3;endArrow=block;endFill=1;fontStyle=1;strokeColor=#666666;entryX=0.5;entryY=0;entryDx=0;entryDy=0;endSize=2;exitX=0.5;exitY=1;exitDx=0;exitDy=0;" parent="1" source="Llxdb2gsy4WBxAJzYAwn-17" target="Llxdb2gsy4WBxAJzYAwn-29" edge="1">
          <mxGeometry x="-349" y="60" width="100" height="100" as="geometry">
            <mxPoint x="196" y="129.9999999999999" as="sourcePoint" />
            <mxPoint x="341" y="109.99999999999989" as="targetPoint" />
            <Array as="points">
              <mxPoint x="-115" y="270" />
              <mxPoint x="-114" y="260" />
              <mxPoint x="311" y="220" />
            </Array>
          </mxGeometry>
        </mxCell>
        <mxCell id="Llxdb2gsy4WBxAJzYAwn-48" value="" style="edgeStyle=elbowEdgeStyle;elbow=vertical;strokeWidth=3;endArrow=block;endFill=1;fontStyle=1;strokeColor=#666666;entryX=0.5;entryY=0;entryDx=0;entryDy=0;endSize=2;exitX=0.5;exitY=1;exitDx=0;exitDy=0;" parent="1" source="Llxdb2gsy4WBxAJzYAwn-31" target="Llxdb2gsy4WBxAJzYAwn-39" edge="1">
          <mxGeometry x="-369" y="40" width="100" height="100" as="geometry">
            <mxPoint x="176" y="109.99999999999989" as="sourcePoint" />
            <mxPoint x="321" y="89.99999999999989" as="targetPoint" />
            <Array as="points">
              <mxPoint x="-24" y="340" />
              <mxPoint x="291" y="200" />
            </Array>
          </mxGeometry>
        </mxCell>
        <mxCell id="Llxdb2gsy4WBxAJzYAwn-49" value="" style="edgeStyle=elbowEdgeStyle;elbow=vertical;strokeWidth=3;endArrow=block;endFill=1;fontStyle=1;strokeColor=#666666;entryX=0.5;entryY=0;entryDx=0;entryDy=0;endSize=2;exitX=0.5;exitY=1;exitDx=0;exitDy=0;" parent="1" source="Llxdb2gsy4WBxAJzYAwn-34" target="Llxdb2gsy4WBxAJzYAwn-37" edge="1">
          <mxGeometry x="-359" y="50" width="100" height="100" as="geometry">
            <mxPoint x="186" y="119.99999999999989" as="sourcePoint" />
            <mxPoint x="331" y="99.99999999999989" as="targetPoint" />
            <Array as="points">
              <mxPoint x="-174" y="410" />
              <mxPoint x="301" y="210" />
            </Array>
          </mxGeometry>
        </mxCell>
        <mxCell id="Llxdb2gsy4WBxAJzYAwn-50" value="" style="edgeStyle=elbowEdgeStyle;elbow=vertical;strokeWidth=3;endArrow=block;endFill=1;fontStyle=1;strokeColor=#666666;entryX=0.5;entryY=0;entryDx=0;entryDy=0;endSize=2;exitX=0.5;exitY=1;exitDx=0;exitDy=0;" parent="1" source="Llxdb2gsy4WBxAJzYAwn-29" target="Llxdb2gsy4WBxAJzYAwn-34" edge="1">
          <mxGeometry x="-349" y="60" width="100" height="100" as="geometry">
            <mxPoint x="196" y="129.9999999999999" as="sourcePoint" />
            <mxPoint x="341" y="109.99999999999989" as="targetPoint" />
            <Array as="points">
              <mxPoint x="-194" y="340" />
              <mxPoint x="311" y="220" />
            </Array>
          </mxGeometry>
        </mxCell>
        <mxCell id="Llxdb2gsy4WBxAJzYAwn-51" value="" style="edgeStyle=elbowEdgeStyle;elbow=vertical;strokeWidth=3;endArrow=block;endFill=1;fontStyle=1;strokeColor=#666666;entryX=0.5;entryY=0;entryDx=0;entryDy=0;endSize=2;exitX=0.5;exitY=1;exitDx=0;exitDy=0;" parent="1" source="Llxdb2gsy4WBxAJzYAwn-38" edge="1">
          <mxGeometry x="-379" y="30" width="100" height="100" as="geometry">
            <mxPoint x="166" y="99.99999999999989" as="sourcePoint" />
            <mxPoint x="-115.00000000000023" y="500" as="targetPoint" />
            <Array as="points">
              <mxPoint x="-94" y="480" />
              <mxPoint x="281" y="190" />
            </Array>
          </mxGeometry>
        </mxCell>
        <mxCell id="Llxdb2gsy4WBxAJzYAwn-52" value="" style="edgeStyle=elbowEdgeStyle;elbow=vertical;strokeWidth=3;endArrow=block;endFill=1;fontStyle=1;strokeColor=#666666;entryX=0.5;entryY=0;entryDx=0;entryDy=0;endSize=2;exitX=0.5;exitY=1;exitDx=0;exitDy=0;" parent="1" source="Llxdb2gsy4WBxAJzYAwn-37" edge="1">
          <mxGeometry x="-369" y="40" width="100" height="100" as="geometry">
            <mxPoint x="176" y="109.99999999999989" as="sourcePoint" />
            <mxPoint x="-115.00000000000023" y="500" as="targetPoint" />
            <Array as="points">
              <mxPoint x="-124" y="480" />
              <mxPoint x="291" y="200" />
            </Array>
          </mxGeometry>
        </mxCell>
        <mxCell id="Llxdb2gsy4WBxAJzYAwn-53" value="" style="edgeStyle=elbowEdgeStyle;elbow=vertical;strokeWidth=3;endArrow=block;endFill=1;fontStyle=1;strokeColor=#666666;entryX=0.5;entryY=0;entryDx=0;entryDy=0;endSize=2;exitX=0.5;exitY=1;exitDx=0;exitDy=0;" parent="1" source="Llxdb2gsy4WBxAJzYAwn-39" target="Llxdb2gsy4WBxAJzYAwn-38" edge="1">
          <mxGeometry x="-359" y="50" width="100" height="100" as="geometry">
            <mxPoint x="186" y="119.99999999999989" as="sourcePoint" />
            <mxPoint x="331" y="99.99999999999989" as="targetPoint" />
            <Array as="points">
              <mxPoint x="-14" y="410" />
              <mxPoint x="301" y="210" />
            </Array>
          </mxGeometry>
        </mxCell>
        <mxCell id="Llxdb2gsy4WBxAJzYAwn-64" style="edgeStyle=orthogonalEdgeStyle;rounded=0;orthogonalLoop=1;jettySize=auto;html=1;exitX=1;exitY=0.5;exitDx=0;exitDy=0;strokeColor=#1A1A1A;strokeWidth=1;fontFamily=Helvetica;fontSize=11;endSize=0;curved=1;" parent="1" source="Llxdb2gsy4WBxAJzYAwn-38" edge="1">
          <mxGeometry relative="1" as="geometry">
            <mxPoint x="20.000000000000227" y="620.03" as="sourcePoint" />
            <mxPoint x="56" y="480" as="targetPoint" />
            <Array as="points">
              <mxPoint x="46" y="445" />
              <mxPoint x="46" y="480" />
            </Array>
          </mxGeometry>
        </mxCell>
        <mxCell id="Llxdb2gsy4WBxAJzYAwn-65" style="edgeStyle=orthogonalEdgeStyle;rounded=0;orthogonalLoop=1;jettySize=auto;html=1;exitX=1;exitY=0.5;exitDx=0;exitDy=0;strokeColor=#1A1A1A;strokeWidth=1;fontFamily=Helvetica;fontSize=11;endSize=0;curved=1;" parent="1" edge="1">
          <mxGeometry relative="1" as="geometry">
            <mxPoint x="19.999999999999773" y="445" as="sourcePoint" />
            <mxPoint x="56" y="410" as="targetPoint" />
            <Array as="points">
              <mxPoint x="46" y="445" />
              <mxPoint x="46" y="410" />
            </Array>
          </mxGeometry>
        </mxCell>
        <mxCell id="Llxdb2gsy4WBxAJzYAwn-66" value="&lt;p&gt;&lt;font style=&quot;font-size: 12px;&quot;&gt;&lt;b style=&quot;&quot;&gt;整合完善&lt;/b&gt;&lt;/font&gt;&lt;/p&gt;" style="rounded=1;whiteSpace=wrap;html=1;fillColor=#f8cecc;strokeColor=#b85450;" parent="1" vertex="1">
          <mxGeometry x="-150" y="500" width="70" height="30" as="geometry" />
        </mxCell>
        <mxCell id="Llxdb2gsy4WBxAJzYAwn-70" value="&lt;p&gt;&lt;font style=&quot;font-size: 12px;&quot;&gt;&lt;b style=&quot;&quot;&gt;Text2Text对话系统&lt;/b&gt;&lt;/font&gt;&lt;/p&gt;" style="rounded=1;whiteSpace=wrap;html=1;fillColor=#dae8fc;strokeColor=#6c8ebf;" parent="1" vertex="1">
          <mxGeometry x="-172" y="640" width="114" height="30" as="geometry" />
        </mxCell>
        <mxCell id="Llxdb2gsy4WBxAJzYAwn-71" value="&lt;p&gt;&lt;font style=&quot;font-size: 12px;&quot;&gt;&lt;b style=&quot;&quot;&gt;论文撰写&lt;/b&gt;&lt;/font&gt;&lt;/p&gt;" style="rounded=1;whiteSpace=wrap;html=1;fillColor=#dae8fc;strokeColor=#6c8ebf;" parent="1" vertex="1">
          <mxGeometry x="-220" y="570" width="70" height="30" as="geometry" />
        </mxCell>
        <mxCell id="Llxdb2gsy4WBxAJzYAwn-74" value="&lt;p&gt;&lt;b&gt;结合其他项目&lt;/b&gt;&lt;/p&gt;" style="rounded=1;whiteSpace=wrap;html=1;fillColor=#dae8fc;strokeColor=#6c8ebf;" parent="1" vertex="1">
          <mxGeometry x="-41" y="570" width="114" height="30" as="geometry" />
        </mxCell>
        <mxCell id="Llxdb2gsy4WBxAJzYAwn-77" value="&lt;p&gt;&lt;font style=&quot;font-size: 12px;&quot;&gt;&lt;b style=&quot;&quot;&gt;江姐对话系统落地，于纪念馆展示&lt;/b&gt;&lt;/font&gt;&lt;/p&gt;" style="rounded=1;whiteSpace=wrap;html=1;fillColor=#f8cecc;strokeColor=#b85450;" parent="1" vertex="1">
          <mxGeometry x="-224" y="720" width="218" height="30" as="geometry" />
        </mxCell>
        <mxCell id="Llxdb2gsy4WBxAJzYAwn-78" value="" style="edgeStyle=elbowEdgeStyle;elbow=vertical;strokeWidth=3;endArrow=block;endFill=1;fontStyle=1;strokeColor=#666666;entryX=0.5;entryY=0;entryDx=0;entryDy=0;endSize=2;exitX=0.5;exitY=1;exitDx=0;exitDy=0;" parent="1" source="Llxdb2gsy4WBxAJzYAwn-74" target="Llxdb2gsy4WBxAJzYAwn-81" edge="1">
          <mxGeometry x="-367" y="445" width="100" height="100" as="geometry">
            <mxPoint x="178.00000000000023" y="515" as="sourcePoint" />
            <mxPoint x="323.0000000000002" y="495" as="targetPoint" />
            <Array as="points">
              <mxPoint x="16" y="620" />
              <mxPoint x="293" y="605" />
            </Array>
          </mxGeometry>
        </mxCell>
        <mxCell id="Llxdb2gsy4WBxAJzYAwn-80" value="" style="edgeStyle=elbowEdgeStyle;elbow=vertical;strokeWidth=3;endArrow=block;endFill=1;fontStyle=1;strokeColor=#666666;entryX=0.5;entryY=0;entryDx=0;entryDy=0;endSize=2;exitX=0.5;exitY=1;exitDx=0;exitDy=0;" parent="1" source="Llxdb2gsy4WBxAJzYAwn-66" target="Llxdb2gsy4WBxAJzYAwn-74" edge="1">
          <mxGeometry x="-347" y="465" width="100" height="100" as="geometry">
            <mxPoint x="198.00000000000023" y="535" as="sourcePoint" />
            <mxPoint x="343.0000000000002" y="515" as="targetPoint" />
            <Array as="points">
              <mxPoint x="-94" y="550" />
              <mxPoint x="313" y="625" />
            </Array>
          </mxGeometry>
        </mxCell>
        <mxCell id="Llxdb2gsy4WBxAJzYAwn-81" value="&lt;p&gt;&lt;font style=&quot;font-size: 12px;&quot;&gt;&lt;b style=&quot;&quot;&gt;ASR系统&lt;/b&gt;&lt;/font&gt;&lt;/p&gt;" style="rounded=1;whiteSpace=wrap;html=1;fillColor=#e1d5e7;strokeColor=#9673a6;" parent="1" vertex="1">
          <mxGeometry x="-41" y="640" width="114" height="30" as="geometry" />
        </mxCell>
        <mxCell id="Llxdb2gsy4WBxAJzYAwn-82" value="&lt;p&gt;&lt;font style=&quot;font-size: 12px;&quot;&gt;&lt;b style=&quot;&quot;&gt;TTS系统&lt;/b&gt;&lt;/font&gt;&lt;/p&gt;" style="rounded=1;whiteSpace=wrap;html=1;fillColor=#e1d5e7;strokeColor=#9673a6;" parent="1" vertex="1">
          <mxGeometry x="86" y="640" width="114" height="30" as="geometry" />
        </mxCell>
        <mxCell id="Llxdb2gsy4WBxAJzYAwn-93" value="" style="edgeStyle=elbowEdgeStyle;elbow=vertical;strokeWidth=3;endArrow=block;endFill=1;fontStyle=1;strokeColor=#666666;entryX=0.5;entryY=0;entryDx=0;entryDy=0;endSize=2;exitX=0.5;exitY=1;exitDx=0;exitDy=0;" parent="1" source="Llxdb2gsy4WBxAJzYAwn-70" target="Llxdb2gsy4WBxAJzYAwn-77" edge="1">
          <mxGeometry x="-497" y="515" width="100" height="100" as="geometry">
            <mxPoint x="-104" y="680" as="sourcePoint" />
            <mxPoint x="23" y="710" as="targetPoint" />
            <Array as="points">
              <mxPoint x="-84" y="690" />
              <mxPoint x="163" y="675" />
            </Array>
          </mxGeometry>
        </mxCell>
        <mxCell id="Llxdb2gsy4WBxAJzYAwn-94" value="" style="edgeStyle=elbowEdgeStyle;elbow=vertical;strokeWidth=3;endArrow=block;endFill=1;fontStyle=1;strokeColor=#666666;entryX=0.5;entryY=0;entryDx=0;entryDy=0;endSize=2;exitX=0.5;exitY=1;exitDx=0;exitDy=0;" parent="1" source="Llxdb2gsy4WBxAJzYAwn-81" target="Llxdb2gsy4WBxAJzYAwn-77" edge="1">
          <mxGeometry x="-327" y="535" width="100" height="100" as="geometry">
            <mxPoint x="66" y="700" as="sourcePoint" />
            <mxPoint x="193" y="730" as="targetPoint" />
            <Array as="points">
              <mxPoint x="-94" y="690" />
              <mxPoint x="333" y="695" />
            </Array>
          </mxGeometry>
        </mxCell>
        <mxCell id="Llxdb2gsy4WBxAJzYAwn-95" value="" style="edgeStyle=elbowEdgeStyle;elbow=vertical;strokeWidth=3;endArrow=block;endFill=1;fontStyle=1;strokeColor=#666666;entryX=0.5;entryY=0;entryDx=0;entryDy=0;endSize=2;exitX=0.539;exitY=1.074;exitDx=0;exitDy=0;exitPerimeter=0;" parent="1" source="Llxdb2gsy4WBxAJzYAwn-82" target="Llxdb2gsy4WBxAJzYAwn-77" edge="1">
          <mxGeometry x="-177" y="535" width="100" height="100" as="geometry">
            <mxPoint x="216" y="700" as="sourcePoint" />
            <mxPoint x="343" y="730" as="targetPoint" />
            <Array as="points">
              <mxPoint x="-4" y="690" />
              <mxPoint x="483" y="695" />
            </Array>
          </mxGeometry>
        </mxCell>
        <mxCell id="Llxdb2gsy4WBxAJzYAwn-96" value="&lt;p&gt;&lt;font style=&quot;font-size: 12px;&quot;&gt;&lt;b style=&quot;&quot;&gt;专利申请&lt;/b&gt;&lt;/font&gt;&lt;/p&gt;" style="rounded=1;whiteSpace=wrap;html=1;fillColor=#dae8fc;strokeColor=#6c8ebf;" parent="1" vertex="1">
          <mxGeometry x="-320" y="570" width="70" height="30" as="geometry" />
        </mxCell>
        <mxCell id="Llxdb2gsy4WBxAJzYAwn-97" value="" style="edgeStyle=elbowEdgeStyle;elbow=vertical;strokeWidth=3;endArrow=block;endFill=1;fontStyle=1;strokeColor=#666666;entryX=0.5;entryY=0;entryDx=0;entryDy=0;endSize=2;exitX=0.5;exitY=1;exitDx=0;exitDy=0;" parent="1" source="Llxdb2gsy4WBxAJzYAwn-66" target="Llxdb2gsy4WBxAJzYAwn-96" edge="1">
          <mxGeometry x="-492" y="455" width="100" height="100" as="geometry">
            <mxPoint x="-250" y="530" as="sourcePoint" />
            <mxPoint x="-320" y="570" as="targetPoint" />
            <Array as="points">
              <mxPoint x="-154" y="550" />
              <mxPoint x="168" y="615" />
            </Array>
          </mxGeometry>
        </mxCell>
        <mxCell id="kZzSkaSEjDORUf3LJBv4-1" value="&lt;p&gt;&lt;b&gt;&lt;font face=&quot;Courier New&quot;&gt;input query&lt;/font&gt;&lt;/b&gt;&lt;/p&gt;" style="rounded=1;whiteSpace=wrap;html=1;fillColor=#f8cecc;strokeColor=#b85450;" vertex="1" parent="1">
          <mxGeometry x="10" y="960" width="100" height="40" as="geometry" />
        </mxCell>
        <mxCell id="kZzSkaSEjDORUf3LJBv4-2" value="&lt;p&gt;&lt;b&gt;&lt;font face=&quot;Courier New&quot;&gt;Retrieval Model&lt;/font&gt;&lt;/b&gt;&lt;/p&gt;" style="rounded=1;whiteSpace=wrap;html=1;fillColor=#e1d5e7;strokeColor=#9673a6;" vertex="1" parent="1">
          <mxGeometry x="170" y="960" width="100" height="40" as="geometry" />
        </mxCell>
        <mxCell id="kZzSkaSEjDORUf3LJBv4-3" value="&lt;p&gt;&lt;b&gt;&lt;font face=&quot;Courier New&quot;&gt;Knowledge&lt;/font&gt;&lt;/b&gt;&lt;/p&gt;" style="rounded=1;whiteSpace=wrap;html=1;fillColor=#f8cecc;strokeColor=#b85450;" vertex="1" parent="1">
          <mxGeometry x="330" y="960" width="100" height="40" as="geometry" />
        </mxCell>
        <mxCell id="kZzSkaSEjDORUf3LJBv4-4" value="&lt;p&gt;&lt;b&gt;&lt;font face=&quot;Courier New&quot;&gt;Reader (LLM)&lt;/font&gt;&lt;/b&gt;&lt;/p&gt;" style="rounded=1;whiteSpace=wrap;html=1;fillColor=#e1d5e7;strokeColor=#9673a6;" vertex="1" parent="1">
          <mxGeometry x="490" y="960" width="100" height="40" as="geometry" />
        </mxCell>
        <mxCell id="kZzSkaSEjDORUf3LJBv4-5" value="&lt;p&gt;&lt;b&gt;&lt;font face=&quot;Courier New&quot;&gt;output answer&lt;/font&gt;&lt;/b&gt;&lt;/p&gt;" style="rounded=1;whiteSpace=wrap;html=1;fillColor=#f8cecc;strokeColor=#b85450;" vertex="1" parent="1">
          <mxGeometry x="650" y="960" width="100" height="40" as="geometry" />
        </mxCell>
        <mxCell id="kZzSkaSEjDORUf3LJBv4-6" value="&lt;p&gt;&lt;b&gt;&lt;font face=&quot;Courier New&quot;&gt;input context&lt;/font&gt;&lt;/b&gt;&lt;/p&gt;" style="rounded=1;whiteSpace=wrap;html=1;fillColor=#f8cecc;strokeColor=#b85450;" vertex="1" parent="1">
          <mxGeometry x="10" y="820" width="100" height="40" as="geometry" />
        </mxCell>
        <mxCell id="kZzSkaSEjDORUf3LJBv4-7" value="&lt;p&gt;&lt;b&gt;&lt;font face=&quot;Courier New&quot;&gt;ChatGPT&lt;/font&gt;&lt;/b&gt;&lt;/p&gt;" style="rounded=1;whiteSpace=wrap;html=1;fillColor=#e1d5e7;strokeColor=#9673a6;" vertex="1" parent="1">
          <mxGeometry x="170" y="820" width="100" height="40" as="geometry" />
        </mxCell>
        <mxCell id="kZzSkaSEjDORUf3LJBv4-8" value="&lt;p&gt;&lt;b&gt;&lt;font face=&quot;Courier New&quot;&gt;Knowledge&lt;/font&gt;&lt;/b&gt;&lt;/p&gt;" style="rounded=1;whiteSpace=wrap;html=1;fillColor=#f8cecc;strokeColor=#b85450;" vertex="1" parent="1">
          <mxGeometry x="330" y="820" width="100" height="40" as="geometry" />
        </mxCell>
        <mxCell id="kZzSkaSEjDORUf3LJBv4-9" value="" style="edgeStyle=elbowEdgeStyle;elbow=vertical;strokeWidth=3;endArrow=block;endFill=1;fontStyle=1;strokeColor=#666666;entryX=0;entryY=0.5;entryDx=0;entryDy=0;endSize=2;exitX=1;exitY=0.5;exitDx=0;exitDy=0;" edge="1" parent="1" source="kZzSkaSEjDORUf3LJBv4-1" target="kZzSkaSEjDORUf3LJBv4-2">
          <mxGeometry x="158" y="583" width="100" height="100" as="geometry">
            <mxPoint x="482" y="720" as="sourcePoint" />
            <mxPoint x="220" y="768" as="targetPoint" />
            <Array as="points">
              <mxPoint x="140" y="980" />
              <mxPoint x="818" y="743" />
            </Array>
          </mxGeometry>
        </mxCell>
        <mxCell id="kZzSkaSEjDORUf3LJBv4-11" value="" style="edgeStyle=elbowEdgeStyle;elbow=vertical;strokeWidth=3;endArrow=block;endFill=1;fontStyle=1;strokeColor=#666666;entryX=0.5;entryY=0;entryDx=0;entryDy=0;endSize=2;exitX=0.539;exitY=1.074;exitDx=0;exitDy=0;exitPerimeter=0;" edge="1" parent="1">
          <mxGeometry x="488" y="533" width="100" height="100" as="geometry">
            <mxPoint x="812" y="670" as="sourcePoint" />
            <mxPoint x="550" y="718" as="targetPoint" />
            <Array as="points">
              <mxPoint x="661" y="688" />
              <mxPoint x="1148" y="693" />
            </Array>
          </mxGeometry>
        </mxCell>
        <mxCell id="kZzSkaSEjDORUf3LJBv4-12" value="" style="edgeStyle=elbowEdgeStyle;elbow=vertical;strokeWidth=3;endArrow=block;endFill=1;fontStyle=1;strokeColor=#666666;entryX=0.5;entryY=0;entryDx=0;entryDy=0;endSize=2;exitX=0.539;exitY=1.074;exitDx=0;exitDy=0;exitPerimeter=0;" edge="1" parent="1">
          <mxGeometry x="498" y="543" width="100" height="100" as="geometry">
            <mxPoint x="822" y="680" as="sourcePoint" />
            <mxPoint x="560" y="728" as="targetPoint" />
            <Array as="points">
              <mxPoint x="671" y="698" />
              <mxPoint x="1158" y="703" />
            </Array>
          </mxGeometry>
        </mxCell>
        <mxCell id="kZzSkaSEjDORUf3LJBv4-13" value="" style="edgeStyle=elbowEdgeStyle;elbow=vertical;strokeWidth=3;endArrow=block;endFill=1;fontStyle=1;strokeColor=#666666;entryX=0.5;entryY=0;entryDx=0;entryDy=0;endSize=2;exitX=0.539;exitY=1.074;exitDx=0;exitDy=0;exitPerimeter=0;" edge="1" parent="1">
          <mxGeometry x="508" y="553" width="100" height="100" as="geometry">
            <mxPoint x="832" y="690" as="sourcePoint" />
            <mxPoint x="570" y="738" as="targetPoint" />
            <Array as="points">
              <mxPoint x="681" y="708" />
              <mxPoint x="1168" y="713" />
            </Array>
          </mxGeometry>
        </mxCell>
        <mxCell id="kZzSkaSEjDORUf3LJBv4-14" value="" style="edgeStyle=elbowEdgeStyle;elbow=vertical;strokeWidth=3;endArrow=block;endFill=1;fontStyle=1;strokeColor=#666666;entryX=0.5;entryY=0;entryDx=0;entryDy=0;endSize=2;exitX=0.539;exitY=1.074;exitDx=0;exitDy=0;exitPerimeter=0;" edge="1" parent="1">
          <mxGeometry x="518" y="563" width="100" height="100" as="geometry">
            <mxPoint x="842" y="700" as="sourcePoint" />
            <mxPoint x="580" y="748" as="targetPoint" />
            <Array as="points">
              <mxPoint x="691" y="718" />
              <mxPoint x="1178" y="723" />
            </Array>
          </mxGeometry>
        </mxCell>
        <mxCell id="kZzSkaSEjDORUf3LJBv4-15" value="" style="edgeStyle=elbowEdgeStyle;elbow=vertical;strokeWidth=3;endArrow=block;endFill=1;fontStyle=1;strokeColor=#666666;entryX=0.5;entryY=0;entryDx=0;entryDy=0;endSize=2;exitX=0.539;exitY=1.074;exitDx=0;exitDy=0;exitPerimeter=0;" edge="1" parent="1">
          <mxGeometry x="528" y="573" width="100" height="100" as="geometry">
            <mxPoint x="852" y="710" as="sourcePoint" />
            <mxPoint x="590" y="758" as="targetPoint" />
            <Array as="points">
              <mxPoint x="701" y="728" />
              <mxPoint x="1188" y="733" />
            </Array>
          </mxGeometry>
        </mxCell>
        <mxCell id="kZzSkaSEjDORUf3LJBv4-16" value="" style="edgeStyle=elbowEdgeStyle;elbow=vertical;strokeWidth=3;endArrow=block;endFill=1;fontStyle=1;strokeColor=#666666;entryX=0;entryY=0.5;entryDx=0;entryDy=0;endSize=2;exitX=1;exitY=0.5;exitDx=0;exitDy=0;" edge="1" parent="1" source="kZzSkaSEjDORUf3LJBv4-2" target="kZzSkaSEjDORUf3LJBv4-3">
          <mxGeometry x="318" y="653" width="100" height="100" as="geometry">
            <mxPoint x="270" y="1040" as="sourcePoint" />
            <mxPoint x="330" y="1040" as="targetPoint" />
            <Array as="points">
              <mxPoint x="300" y="980" />
              <mxPoint x="978" y="813" />
            </Array>
          </mxGeometry>
        </mxCell>
        <mxCell id="kZzSkaSEjDORUf3LJBv4-17" value="" style="edgeStyle=elbowEdgeStyle;elbow=vertical;strokeWidth=3;endArrow=block;endFill=1;fontStyle=1;strokeColor=#666666;endSize=2;exitX=1;exitY=0.5;exitDx=0;exitDy=0;entryX=0;entryY=0.5;entryDx=0;entryDy=0;" edge="1" parent="1" source="kZzSkaSEjDORUf3LJBv4-3" target="kZzSkaSEjDORUf3LJBv4-4">
          <mxGeometry x="328" y="663" width="100" height="100" as="geometry">
            <mxPoint x="280" y="1050" as="sourcePoint" />
            <mxPoint x="440" y="1050" as="targetPoint" />
            <Array as="points">
              <mxPoint x="470" y="980" />
              <mxPoint x="988" y="823" />
            </Array>
          </mxGeometry>
        </mxCell>
        <mxCell id="kZzSkaSEjDORUf3LJBv4-18" value="" style="edgeStyle=elbowEdgeStyle;elbow=vertical;strokeWidth=3;endArrow=block;endFill=1;fontStyle=1;strokeColor=#666666;entryX=0;entryY=0.5;entryDx=0;entryDy=0;endSize=2;exitX=1;exitY=0.5;exitDx=0;exitDy=0;" edge="1" parent="1" source="kZzSkaSEjDORUf3LJBv4-4" target="kZzSkaSEjDORUf3LJBv4-5">
          <mxGeometry x="668" y="663" width="100" height="100" as="geometry">
            <mxPoint x="620" y="1050" as="sourcePoint" />
            <mxPoint x="680" y="1050" as="targetPoint" />
            <Array as="points">
              <mxPoint x="620" y="980" />
              <mxPoint x="1328" y="823" />
            </Array>
          </mxGeometry>
        </mxCell>
        <mxCell id="kZzSkaSEjDORUf3LJBv4-19" value="" style="edgeStyle=elbowEdgeStyle;elbow=vertical;strokeWidth=3;endArrow=block;endFill=1;fontStyle=1;strokeColor=#d6b656;entryX=0.5;entryY=1;entryDx=0;entryDy=0;endSize=2;exitX=0.5;exitY=0;exitDx=0;exitDy=0;fillColor=#fff2cc;" edge="1" parent="1" source="kZzSkaSEjDORUf3LJBv4-1" target="kZzSkaSEjDORUf3LJBv4-7">
          <mxGeometry x="348" y="653" width="100" height="100" as="geometry">
            <mxPoint x="300" y="1040" as="sourcePoint" />
            <mxPoint x="360" y="1040" as="targetPoint" />
            <Array as="points">
              <mxPoint x="140" y="880" />
              <mxPoint x="1008" y="813" />
            </Array>
          </mxGeometry>
        </mxCell>
        <mxCell id="kZzSkaSEjDORUf3LJBv4-20" value="" style="edgeStyle=elbowEdgeStyle;elbow=vertical;strokeWidth=3;endArrow=block;endFill=1;fontStyle=1;strokeColor=#d6b656;entryX=0;entryY=0.5;entryDx=0;entryDy=0;endSize=2;exitX=1;exitY=0.5;exitDx=0;exitDy=0;fillColor=#fff2cc;" edge="1" parent="1" source="kZzSkaSEjDORUf3LJBv4-6" target="kZzSkaSEjDORUf3LJBv4-7">
          <mxGeometry x="178" y="483" width="100" height="100" as="geometry">
            <mxPoint x="130" y="870" as="sourcePoint" />
            <mxPoint x="190" y="870" as="targetPoint" />
            <Array as="points">
              <mxPoint x="140" y="840" />
              <mxPoint x="838" y="643" />
            </Array>
          </mxGeometry>
        </mxCell>
        <mxCell id="kZzSkaSEjDORUf3LJBv4-21" value="" style="edgeStyle=elbowEdgeStyle;elbow=vertical;strokeWidth=3;endArrow=block;endFill=1;fontStyle=1;strokeColor=#d6b656;entryX=0;entryY=0.5;entryDx=0;entryDy=0;endSize=2;exitX=1;exitY=0.5;exitDx=0;exitDy=0;fillColor=#fff2cc;" edge="1" parent="1" source="kZzSkaSEjDORUf3LJBv4-7" target="kZzSkaSEjDORUf3LJBv4-8">
          <mxGeometry x="368" y="673" width="100" height="100" as="geometry">
            <mxPoint x="320" y="1060" as="sourcePoint" />
            <mxPoint x="380" y="1060" as="targetPoint" />
            <Array as="points">
              <mxPoint x="290" y="840" />
              <mxPoint x="1028" y="833" />
            </Array>
          </mxGeometry>
        </mxCell>
        <mxCell id="kZzSkaSEjDORUf3LJBv4-22" value="" style="edgeStyle=elbowEdgeStyle;elbow=vertical;strokeWidth=3;endArrow=block;endFill=1;fontStyle=1;strokeColor=#d6b656;endSize=2;exitX=0.5;exitY=0;exitDx=0;exitDy=0;fillColor=#fff2cc;entryX=0;entryY=0.5;entryDx=0;entryDy=0;" edge="1" parent="1" source="kZzSkaSEjDORUf3LJBv4-1" target="kZzSkaSEjDORUf3LJBv4-33">
          <mxGeometry x="188" y="663" width="100" height="100" as="geometry">
            <mxPoint x="140" y="1050" as="sourcePoint" />
            <mxPoint x="175" y="910" as="targetPoint" />
            <Array as="points">
              <mxPoint x="120" y="915" />
              <mxPoint x="848" y="823" />
            </Array>
          </mxGeometry>
        </mxCell>
        <mxCell id="kZzSkaSEjDORUf3LJBv4-23" value="" style="edgeStyle=elbowEdgeStyle;elbow=vertical;strokeWidth=3;endArrow=block;endFill=1;fontStyle=1;strokeColor=#6c8ebf;entryX=0;entryY=0.5;entryDx=0;entryDy=0;endSize=2;exitX=0.5;exitY=1;exitDx=0;exitDy=0;fillColor=#dae8fc;" edge="1" parent="1" source="kZzSkaSEjDORUf3LJBv4-1" target="kZzSkaSEjDORUf3LJBv4-36">
          <mxGeometry x="178" y="703" width="100" height="100" as="geometry">
            <mxPoint x="130" y="1090" as="sourcePoint" />
            <mxPoint x="190" y="1090" as="targetPoint" />
            <Array as="points">
              <mxPoint x="200" y="1050" />
            </Array>
          </mxGeometry>
        </mxCell>
        <mxCell id="kZzSkaSEjDORUf3LJBv4-25" value="" style="edgeStyle=elbowEdgeStyle;elbow=vertical;strokeWidth=3;endArrow=block;endFill=1;fontStyle=1;strokeColor=#6c8ebf;entryX=0.5;entryY=1;entryDx=0;entryDy=0;endSize=2;exitX=0.5;exitY=0;exitDx=0;exitDy=0;fillColor=#dae8fc;" edge="1" parent="1" source="kZzSkaSEjDORUf3LJBv4-38" target="kZzSkaSEjDORUf3LJBv4-4">
          <mxGeometry x="698" y="683" width="100" height="100" as="geometry">
            <mxPoint x="650" y="1070" as="sourcePoint" />
            <mxPoint x="710" y="1070" as="targetPoint" />
            <Array as="points">
              <mxPoint x="550" y="1010" />
              <mxPoint x="1358" y="843.0000000000001" />
            </Array>
          </mxGeometry>
        </mxCell>
        <mxCell id="kZzSkaSEjDORUf3LJBv4-26" value="" style="edgeStyle=elbowEdgeStyle;elbow=vertical;strokeWidth=3;endArrow=block;endFill=1;fontStyle=1;strokeColor=#6c8ebf;entryX=0;entryY=0.5;entryDx=0;entryDy=0;endSize=2;exitX=1;exitY=0.5;exitDx=0;exitDy=0;fillColor=#dae8fc;" edge="1" parent="1" source="kZzSkaSEjDORUf3LJBv4-36" target="kZzSkaSEjDORUf3LJBv4-38">
          <mxGeometry x="688" y="692.31" width="100" height="100" as="geometry">
            <mxPoint x="640" y="1079.31" as="sourcePoint" />
            <mxPoint x="700" y="1079.31" as="targetPoint" />
            <Array as="points">
              <mxPoint x="460" y="1050" />
              <mxPoint x="1348" y="852.31" />
            </Array>
          </mxGeometry>
        </mxCell>
        <mxCell id="kZzSkaSEjDORUf3LJBv4-27" value="" style="edgeStyle=elbowEdgeStyle;elbow=vertical;strokeWidth=3;endArrow=block;endFill=1;fontStyle=1;strokeColor=#d6b656;endSize=2;exitX=0.5;exitY=1;exitDx=0;exitDy=0;fillColor=#fff2cc;entryX=1;entryY=0.5;entryDx=0;entryDy=0;" edge="1" parent="1" source="kZzSkaSEjDORUf3LJBv4-8" target="kZzSkaSEjDORUf3LJBv4-33">
          <mxGeometry x="214" y="833" width="100" height="100" as="geometry">
            <mxPoint x="86" y="1120" as="sourcePoint" />
            <mxPoint x="290" y="920" as="targetPoint" />
            <Array as="points">
              <mxPoint x="350" y="915" />
              <mxPoint x="330" y="910" />
              <mxPoint x="330" y="920" />
              <mxPoint x="874" y="993" />
            </Array>
          </mxGeometry>
        </mxCell>
        <mxCell id="kZzSkaSEjDORUf3LJBv4-29" value="" style="edgeStyle=elbowEdgeStyle;elbow=vertical;strokeWidth=3;endArrow=block;endFill=1;fontStyle=1;strokeColor=#d6b656;endSize=2;fillColor=#fff2cc;exitX=0.5;exitY=1;exitDx=0;exitDy=0;entryX=0.016;entryY=1.014;entryDx=0;entryDy=0;entryPerimeter=0;" edge="1" parent="1" source="kZzSkaSEjDORUf3LJBv4-33" target="kZzSkaSEjDORUf3LJBv4-35">
          <mxGeometry x="-1" y="1033" width="100" height="100" as="geometry">
            <mxPoint x="219.63999999999987" y="925.3599999999999" as="sourcePoint" />
            <mxPoint x="220" y="950" as="targetPoint" />
            <Array as="points">
              <mxPoint x="240" y="940" />
              <mxPoint x="659" y="1193" />
            </Array>
          </mxGeometry>
        </mxCell>
        <mxCell id="kZzSkaSEjDORUf3LJBv4-33" value="&lt;p&gt;&lt;b style=&quot;border-color: var(--border-color);&quot;&gt;&lt;font face=&quot;Courier New&quot; style=&quot;border-color: var(--border-color); font-size: 12px;&quot;&gt;QKC Loss&lt;/font&gt;&lt;/b&gt;&lt;br&gt;&lt;/p&gt;" style="rounded=1;whiteSpace=wrap;html=1;fillColor=#fff2cc;strokeColor=#d6b656;" vertex="1" parent="1">
          <mxGeometry x="175" y="900" width="90" height="30" as="geometry" />
        </mxCell>
        <mxCell id="kZzSkaSEjDORUf3LJBv4-35" value="&lt;i&gt;&lt;font face=&quot;Comic Sans MS&quot;&gt;Train&lt;/font&gt;&lt;/i&gt;" style="text;html=1;align=center;verticalAlign=middle;resizable=0;points=[];autosize=1;strokeColor=none;fillColor=none;" vertex="1" parent="1">
          <mxGeometry x="220" y="930" width="50" height="30" as="geometry" />
        </mxCell>
        <mxCell id="kZzSkaSEjDORUf3LJBv4-36" value="&lt;p&gt;&lt;b&gt;&lt;font face=&quot;Courier New&quot;&gt;Self-Instruct&lt;/font&gt;&lt;/b&gt;&lt;/p&gt;" style="rounded=1;whiteSpace=wrap;html=1;fillColor=#dae8fc;strokeColor=#6c8ebf;" vertex="1" parent="1">
          <mxGeometry x="330" y="1030" width="100" height="40" as="geometry" />
        </mxCell>
        <mxCell id="kZzSkaSEjDORUf3LJBv4-38" value="&lt;p&gt;&lt;b&gt;&lt;font face=&quot;Courier New&quot;&gt;LLM-Adapter/Lora&lt;/font&gt;&lt;/b&gt;&lt;/p&gt;" style="rounded=1;whiteSpace=wrap;html=1;fillColor=#dae8fc;strokeColor=#6c8ebf;" vertex="1" parent="1">
          <mxGeometry x="490" y="1030" width="100" height="40" as="geometry" />
        </mxCell>
        <mxCell id="kZzSkaSEjDORUf3LJBv4-39" value="&lt;i&gt;&lt;font face=&quot;Comic Sans MS&quot;&gt;Train&lt;/font&gt;&lt;/i&gt;" style="text;html=1;align=center;verticalAlign=middle;resizable=0;points=[];autosize=1;strokeColor=none;fillColor=none;" vertex="1" parent="1">
          <mxGeometry x="540" y="1000" width="50" height="30" as="geometry" />
        </mxCell>
      </root>
    </mxGraphModel>
  </diagram>
</mxfile>
